<svg xmlns="http://www.w3.org/2000/svg" xmlns:xlink="http://www.w3.org/1999/xlink" viewBox="0 0 155.169 155.169" height="586.466" width="586.466"><defs><linearGradient id="A" gradientUnits="userSpaceOnUse"><stop offset="0" stop-color="#fff44f" stop-opacity=".8"/><stop offset=".751" stop-color="#fff44f" stop-opacity="0"/></linearGradient><linearGradient id="B" gradientUnits="userSpaceOnUse" x1="160.008" y1="40.008" x2="100.008" y2="180"><stop stop-color="#37aee2" offset="0" stop-opacity="0"/><stop stop-color="#1e96c8" offset="1" stop-opacity="0"/></linearGradient><radialGradient gradientTransform="matrix(4.4292543,-0.00937413,0.00863853,4.0816693,-654.99926,-176.9423)" r="65.246" fy="60.626" fx="198.561" cy="60.626" cx="198.561" id="C" xlink:href="#D"/><radialGradient gradientUnits="userSpaceOnUse" id="D"><stop offset="0" stop-color="#ff980e"/><stop offset=".295" stop-color="#ff7139"/><stop offset=".485" stop-color="#ff5b51"/><stop offset=".626" stop-color="#ff4f5e"/><stop offset=".737" stop-color="#ff4055"/><stop offset=".843" stop-color="#ff3750"/></radialGradient><linearGradient y2="214.911" x2="-266.825" y1="-13.184" x1="-52.8" id="E" gradientUnits="userSpaceOnUse"><stop offset="0" stop-color="#fff44f" stop-opacity=".8"/><stop offset=".75" stop-color="#fff44f" stop-opacity="0"/></linearGradient><radialGradient gradientTransform="matrix(3.3934655,0.01669018,-0.01854118,3.7698167,-290.33889,-84.915347)" r="49.129" fy="17.315" fx="125.747" cy="17.315" cx="125.747" id="F" xlink:href="#D"/><radialGradient gradientTransform="matrix(5.1424314,-0.03334111,0.03722059,5.7407794,-574.99219,-343.13552)" r="23.312" fy="71.805" fx="139.596" cy="71.805" cx="139.596" id="G" xlink:href="#D"/><linearGradient y2="-1102.672" x2="18.701" y1="-1195.477" x1="86.723" id="H" xlink:href="#A"/><linearGradient y2="-1160.497" x2="23.424" y1="-1187.156" x1="32.542" id="I" xlink:href="#A"/><radialGradient r="16.921" fy="19.828" fx="57.192" cy="19.828" cx="57.192" gradientTransform="matrix(3.5145226,0.00791587,-0.00463923,2.059739,-135.50088,-25.949891)" id="J" xlink:href="#D"/><path id="K" d="M34.367 142.514c11.645 0 17.827-10.4 19.645-16.544a6.43 6.43 0 0 0 .081-.297l15.983-65.58h17.886a6.09 6.09 0 1 0 0-12.18h-14.86l3.232-12.46.512-1.734c1.888-6.443 6.31-21.535 13.146-21.535 6.34 0 7.285 9.764 7.328 10.236.27 3.343 3.186 5.868 6.537 5.58a6.09 6.09 0 0 0 5.605-6.539C108.894 14.036 104.087 0 89.99 0 74.03 0 68.038 20.458 65.16 30.292l-.5 1.66c-.585 1.946-2.12 7.942-4.122 15.962H39.24a6.09 6.09 0 1 0 0 12.18h18.29L42.307 122.59c-.332.965-2.83 7.742-7.937 7.742-7.8 0-11.177-10.948-11.204-11.03-.936-3.23-4.305-5.098-7.544-4.156-3.23.937-5.092 4.314-4.156 7.545 2.13 7.36 9.35 19.822 22.9 19.822z"/><path id="L" d="M124.685 126.81c3.59 0 6.605-2.55 6.605-6.607 0-1.885-.754-3.586-2.36-5.474l-12.646-14.534 12.27-14.346c1.132-1.416 1.98-2.926 1.98-4.908 0-3.6-2.927-6.23-6.703-6.23-2.547 0-4.527 1.604-6.23 3.684l-9.53 12.454L98.73 78.39c-1.9-2.357-3.87-3.682-6.7-3.682-3.6 0-6.607 2.55-6.607 6.61 0 1.885.756 3.586 2.357 5.47l11.8 13.592-12.932 15.29c-1.227 1.416-1.98 2.926-1.98 4.908 0 3.59 2.926 6.23 6.7 6.23 2.55 0 4.53-1.604 6.23-3.682l10.2-13.4 10.193 13.4c1.894 2.363 3.876 3.684 6.707 3.684z"/><path id="M" d="M34 33.94l.58.1c.3 0 .57-.28.8-.84s.62-2.8 1.42-7.12l.58-3V23h-.94a5 5 0 0 1-1 0c-.1-.05-.1-.2 0-.44a2 2 0 0 1 .1-.32.2.2 0 0 1 .17-.11h.93a6.93 6.93 0 0 0 1 0l.18-1 .24-1.15a4.93 4.93 0 0 1 1.26-2.65 2.58 2.58 0 0 1 1.66-.66 2.11 2.11 0 0 1 1.21.44 1.3 1.3 0 0 1 .49 1.06 1.39 1.39 0 0 1-.36 1 1.15 1.15 0 0 1-.9.4c-.6 0-.88-.28-.88-.84a1.13 1.13 0 0 1 .7-1.08l.18-.1a2.34 2.34 0 0 0-.6-.12c-.4 0-.64.26-.76.76l-.52 2.62-.34 1.2a5.4 5.4 0 0 0 1.1 0h1.08c.08 0 .18.06.18.14a2.45 2.45 0 0 1-.14.65.19.19 0 0 1-.19.1H39l-.46 2.45-.92 4.6a8.13 8.13 0 0 1-1.82 4.1 2.23 2.23 0 0 1-1.46.64 1.84 1.84 0 0 1-1.2-.39 1.34 1.34 0 0 1-.48-1.07 1.51 1.51 0 0 1 .36-1 1.15 1.15 0 0 1 .9-.4c.6 0 .88.27.88.83a1.11 1.11 0 0 1-.7 1.08z"/><path id="N" d="M48.06 35.5q0 .18-.36.18h-.26l-.56-.48q-3.6-3.27-3.6-9.52a16.05 16.05 0 0 1 .58-4.46 10.78 10.78 0 0 1 3-5.06l.32-.27.24-.2h.26a.47.47 0 0 1 .3.06.18.18 0 0 1 .06.13s-.07.15-.22.3q-3.1 3.28-3.1 9.52.01 6.24 3.1 9.52c.18.15.24.25.24.3z"/><path id="O" d="M50.34 25.13a.33.33 0 0 1-.12-.21 3.71 3.71 0 0 1 .62-1.39 3.41 3.41 0 0 1 2.36-1.63 3.21 3.21 0 0 1 .42 0 2.41 2.41 0 0 1 1.29.36 2.15 2.15 0 0 1 .85.9l.32-.42a2.21 2.21 0 0 1 1.7-.84 1.89 1.89 0 0 1 1.33.47 1.52 1.52 0 0 1 .51 1.15 1.58 1.58 0 0 1-.35 1 1.15 1.15 0 0 1-.93.43.88.88 0 0 1-.62-.23.73.73 0 0 1-.24-.58 1.26 1.26 0 0 1 1-1.25s-.07-.07-.22-.15a1.14 1.14 0 0 0-.58-.12 1.62 1.62 0 0 0-.38 0A2.12 2.12 0 0 0 56.18 24c0 .1-.23.85-.58 2.23l-.56 2.33a3.13 3.13 0 0 0-.06.6 1 1 0 0 0 .28.77 1 1 0 0 0 .74.27 2 2 0 0 0 1.52-.71 3.69 3.69 0 0 0 .92-1.56c0-.14.08-.2.12-.23a.89.89 0 0 1 .32 0c.25 0 .38.06.38.16a1.45 1.45 0 0 1 0 .22 4.32 4.32 0 0 1-1.4 2.16 3.14 3.14 0 0 1-2 .75 2.32 2.32 0 0 1-2.12-1.27 2.81 2.81 0 0 1-1.48 1.2 2.21 2.21 0 0 1-.52 0 1.75 1.75 0 0 1-1.64-.83 1.56 1.56 0 0 1-.2-.8 1.53 1.53 0 0 1 .36-1 1.16 1.16 0 0 1 .92-.42.75.75 0 0 1 .86.84 1.11 1.11 0 0 1-.7 1.08l-.2.1h-.12a1.08 1.08 0 0 0 .3.17 1.27 1.27 0 0 0 .52.1 1.46 1.46 0 0 0 1.24-.9 14.27 14.27 0 0 0 .78-2.6l.26-1 .2-.86.1-.35a4.71 4.71 0 0 0 .1-.79 1.05 1.05 0 0 0-.26-.75.92.92 0 0 0-.72-.29 2.09 2.09 0 0 0-1.54.68 3.73 3.73 0 0 0-1 1.6.41.41 0 0 1-.09.2.94.94 0 0 1-.33 0z"/><path id="P" d="M61.82 15.7h.52l.56.48q3.6 3.28 3.6 9.52a15.66 15.66 0 0 1-.58 4.44 10.7 10.7 0 0 1-3 5.08l-.32.27-.24.2h-.26a.7.7 0 0 1-.31 0s-.07-.1-.07-.2l.22-.26Q65 32 65 25.7q0-6.3-3.1-9.5l-.22-.25a.24.24 0 0 1 .14-.23z"/></defs><g transform="translate(-25.485 29.033)"><path d="M-90.25-98.8h400.406v301.47H-90.25z" fill="#282828" fill-rule="evenodd"/><g fill="#f1f1f1" stroke="#f1f1f1"><path d="M103.07-21.638c-38.696 0-70.2 31.51-70.2 70.2s31.51 70.2 70.2 70.2 70.2-31.51 70.2-70.2-31.51-70.2-70.2-70.2zm-.105 6.237c2.496.065 4.486 2.113 4.485 4.618a4.62 4.62 0 0 1-4.618 4.618 4.62 4.62 0 0 1-3.219-7.931 4.62 4.62 0 0 1 3.352-1.305zM92.527-7.8L99.64-.345c1.604 1.678 4.262 1.752 5.94.134l7.96-7.588c3.176.615 6.293 1.5 9.318 2.645a5.08 5.08 0 0 1 .828.244c1.972.772 3.89 1.65 5.747 2.63l.333.18c1.46.782 2.883 1.625 4.264 2.527l.9.6a57.05 57.05 0 0 1 3.421 2.522c.467.37.927.75 1.382 1.135.91.77 1.792 1.57 2.65 2.397.573.55 1.134 1.112 1.683 1.686.723.756 1.425 1.532 2.106 2.327.605.707 1.193 1.43 1.762 2.166.475.613.94 1.234 1.39 1.867.034.047.064.096.095.144 1.083 1.496 2.092 3.044 3.024 4.64l-5.45 12.295a4.25 4.25 0 0 0 2.138 5.568l10.483 4.648c.325 3.277.365 6.576.12 9.86h-.07a56.55 56.55 0 0 1-10.93 29.505h.1c-1.606 2.15-3.363 4.185-5.256 6.088l-9.756-2.094a4.22 4.22 0 0 0-5.004 3.237l-2.316 10.8c-1.678.757-3.39 1.432-5.135 2.023l-.04.015-.143.053c-.034.012-.067.026-.1.037-5.7 1.91-11.78 2.947-18.115 2.947a56.85 56.85 0 0 1-16.498-2.431 4.76 4.76 0 0 1-1.036-.454c-2.15-.678-4.26-1.485-6.316-2.414l-2.316-10.8c-.5-2.272-2.717-3.727-4.99-3.237l-9.548 2.05c-1.04-1.096-2.038-2.232-2.988-3.407a3.35 3.35 0 0 1-.747-.687 56.61 56.61 0 0 1-12.412-35.461 4.78 4.78 0 0 1 .138-1.16c.032-1.657.137-3.312.314-4.96l9.95-4.425c2.123-.95 3.09-3.43 2.138-5.553l-2.05-4.618h.037c-1.877-3.345-3.857-6.316-3.857-6.316 1.468-2.66 3.073-4.947 4.9-7.35 7.2-9.455 17.274-16.6 28.932-20.084a3.18 3.18 0 0 1 .912-.134c1.645-.49 3.312-.908 4.995-1.248zm-44.62 34.182a4.62 4.62 0 0 1 4.485 4.618 4.62 4.62 0 0 1-4.618 4.589 4.62 4.62 0 0 1-3.219-7.902 4.62 4.62 0 0 1 3.352-1.305zm110.103.208a4.62 4.62 0 0 1 4.486 4.618 4.62 4.62 0 0 1-4.618 4.618 4.62 4.62 0 0 1-3.219-7.931 4.62 4.62 0 0 1 3.352-1.305zm-89.24 64.815a4.62 4.62 0 0 1 4.485 4.618 4.62 4.62 0 0 1-4.618 4.618 4.62 4.62 0 0 1-3.219-7.931 4.62 4.62 0 0 1 3.352-1.305zm68.38.208a4.62 4.62 0 0 1 4.485 4.618 4.62 4.62 0 0 1-4.618 4.618 4.62 4.62 0 0 1-3.219-7.931 4.62 4.62 0 0 1 3.352-1.305z" stroke-width="1.485"/><path d="M169.34 48.552c0 36.6-29.67 66.27-66.27 66.27a66.27 66.27 0 0 1-66.27-66.27 66.27 66.27 0 0 1 66.27-66.27c36.6 0 66.27 29.67 66.27 66.27zm-1.247-6.4l10.335 6.4-10.335 6.4 8.88 8.3-11.374 4.262 7.098 9.874-12.013 1.96 5.05 11.077-12.16-.43 2.792 11.85-11.85-2.792.43 12.16-11.077-5.05-1.96 12.013-9.874-7.098-4.262 11.374-8.3-8.88-6.4 10.335-6.4-10.335-8.3 8.88-4.262-11.374-9.874 7.098-1.96-12.013-11.077 5.05.43-12.16-11.85 2.792 2.792-11.85-12.16.43 5.05-11.077-12.013-1.96 7.098-9.874-11.374-4.262 8.88-8.3-10.335-6.4 10.335-6.4-8.88-8.3L40.54 29.6l-7.098-9.874 12.013-1.96-5.05-11.077 12.16.43-2.792-11.85 11.85 2.792-.43-12.16 11.077 5.05 1.96-12.013 9.874 7.098L88.37-25.35l8.3 8.88 6.4-10.335 6.4 10.335 8.3-8.88 4.262 11.374 9.874-7.098 1.96 12.013 11.077-5.05-.43 12.16 11.85-2.792-2.792 11.85 12.16-.43-5.05 11.077 12.013 1.96-7.098 9.874 11.374 4.262z" fill-rule="evenodd" stroke-linejoin="round" stroke-width="4.455"/></g><g transform="matrix(.466171 0 0 .466171 -86.750151 31.240323)"><circle cx="120" cy="120" r="120" fill="url(#B)"/><path d="M98 175c-3.888 0-3.227-1.468-4.568-5.17L82 132.206 170 80" fill="#bf2543"/><path d="M98 175c3 0 4.326-1.372 6-3l16-15.558-19.958-12.035" fill="#a92543"/><path d="M100.04 144.4l48.36 35.73c5.518 3.045 9.5 1.468 10.876-5.124l19.685-92.763c2.015-8.08-3.08-11.745-8.36-9.348l-115.6 44.57c-7.9 3.165-7.844 7.567-1.438 9.528l29.663 9.258 68.673-43.325c3.242-1.966 6.217-.91 3.775 1.258" fill="url(#C)"/></g><path d="M22.812-31.286H192.53v164.37H22.812z" fill-opacity="0" fill-rule="evenodd"/><g fill="#282828" stroke="#282828"><path d="M268.117 23.57c-38.696 0-70.2 31.51-70.2 70.2s31.51 70.2 70.2 70.2 70.2-31.51 70.2-70.2-31.51-70.2-70.2-70.2zm-.105 6.237c2.496.065 4.486 2.113 4.485 4.618a4.62 4.62 0 0 1-4.618 4.618 4.62 4.62 0 0 1-3.219-7.931 4.62 4.62 0 0 1 3.352-1.305zm-10.438 7.602l7.112 7.454c1.604 1.678 4.262 1.752 5.94.134l7.96-7.588c3.176.615 6.293 1.5 9.318 2.645a5.08 5.08 0 0 1 .828.244c1.972.772 3.89 1.65 5.747 2.63l.333.18c1.46.782 2.883 1.625 4.264 2.527l.9.6a57.05 57.05 0 0 1 3.421 2.522c.467.37.927.75 1.382 1.135.91.77 1.792 1.57 2.65 2.397.573.55 1.134 1.112 1.683 1.686.723.756 1.425 1.532 2.106 2.327.605.707 1.193 1.43 1.762 2.166.475.613.94 1.234 1.39 1.867.034.047.064.096.095.144 1.083 1.496 2.092 3.044 3.024 4.64L312.04 77.4a4.25 4.25 0 0 0 2.138 5.568l10.483 4.648c.325 3.277.365 6.576.12 9.86h-.07a56.55 56.55 0 0 1-10.93 29.505h.1c-1.606 2.15-3.363 4.185-5.256 6.088l-9.756-2.094a4.22 4.22 0 0 0-5.004 3.237l-2.316 10.8c-1.678.757-3.39 1.432-5.135 2.023-.013.005-.026.01-.04.015l-.244.1c-5.7 1.91-11.78 2.947-18.115 2.947a56.85 56.85 0 0 1-16.498-2.431 4.76 4.76 0 0 1-1.036-.454c-2.15-.678-4.26-1.485-6.316-2.414L241.85 134c-.5-2.272-2.717-3.727-4.99-3.237l-9.548 2.05c-1.04-1.096-2.038-2.232-2.988-3.407a3.35 3.35 0 0 1-.747-.687 56.61 56.61 0 0 1-12.412-35.461 4.78 4.78 0 0 1 .138-1.16c.032-1.657.137-3.312.314-4.96l9.95-4.425c2.123-.95 3.09-3.43 2.138-5.553l-2.05-4.618h.037c-1.877-3.345-3.857-6.316-3.857-6.316 1.468-2.66 3.073-4.947 4.9-7.35 7.2-9.455 17.274-16.6 28.932-20.084a3.18 3.18 0 0 1 .912-.134c1.645-.49 3.312-.908 4.995-1.248zm-44.62 34.182a4.62 4.62 0 0 1 4.485 4.618 4.62 4.62 0 0 1-4.618 4.589 4.62 4.62 0 0 1-3.219-7.902 4.62 4.62 0 0 1 3.352-1.305zm110.103.208a4.62 4.62 0 0 1 4.486 4.618 4.62 4.62 0 0 1-4.618 4.618 4.62 4.62 0 0 1-3.219-7.931 4.62 4.62 0 0 1 3.352-1.305zm-89.24 64.815a4.62 4.62 0 0 1 4.486 4.618 4.62 4.62 0 0 1-4.618 4.618 4.62 4.62 0 0 1-3.219-7.931 4.62 4.62 0 0 1 3.352-1.305zm68.38.208a4.62 4.62 0 0 1 4.485 4.618 4.62 4.62 0 0 1-4.618 4.618 4.62 4.62 0 0 1-3.219-7.931 4.62 4.62 0 0 1 3.352-1.305z" stroke-width="1.485"/><path d="M334.387 93.76c0 36.6-29.67 66.27-66.27 66.27a66.27 66.27 0 0 1-66.27-66.27 66.27 66.27 0 0 1 66.27-66.27c36.6 0 66.27 29.67 66.27 66.27zm-1.247-6.4l10.335 6.4-10.335 6.4 8.88 8.3-11.374 4.262 7.098 9.874-12.013 1.96 5.05 11.077-12.16-.43 2.792 11.85-11.85-2.792.43 12.16-11.077-5.05-1.96 12.013-9.874-7.098-4.262 11.374-8.3-8.88-6.4 10.335-6.4-10.335-8.3 8.88-4.262-11.374-9.874 7.098-1.96-12.013-11.077 5.05.43-12.16-11.85 2.792 2.792-11.85-12.16.43 5.05-11.077-12.013-1.96 7.098-9.874-11.374-4.262 8.88-8.3-10.335-6.4 10.335-6.4-8.88-8.3 11.374-4.262-7.098-9.874 12.013-1.96-5.05-11.077 12.16.43-2.792-11.85 11.85 2.792-.43-12.16 11.077 5.05 1.96-12.013 9.874 7.098 4.262-11.374 8.3 8.88 6.4-10.335 6.4 10.335 8.3-8.88 4.262 11.374 9.874-7.098 1.96 12.013 11.077-5.05-.43 12.16 11.85-2.792-2.792 11.85 12.16-.43-5.05 11.077 12.013 1.96-7.098 9.874 11.374 4.262z" fill-rule="evenodd" stroke-linejoin="round" stroke-width="4.455"/></g><path d="M-121.428 67.483c-.93.034-1.916.27-2.905.72l-115.6 44.57c-7.9 3.165-7.844 7.566-1.438 9.528l29.658 9.257 10.2 33.57c1.34 3.702.68 5.17 4.568 5.17 3 0 4.325-1.373 6-3l14.413-14.014 29.987 22.154c5.518 3.045 9.502 1.468 10.877-5.124l19.684-92.763c1.638-6.565-1.418-10.216-5.454-10.07z" fill="url(#E)" transform="matrix(.466171 0 0 .466171 50.73991 33.431602)"/><g transform="matrix(.484948 0 0 .484948 -106.52636 -72.625239)"><use xlink:href="#K" fill="url(#F)"/><use xlink:href="#L" fill="url(#G)"/></g><g transform="matrix(.484948 0 0 .484948 -106.52636 -72.625238)"><use xlink:href="#K" fill="url(#H)"/><use xlink:href="#L" fill="url(#H)"/></g><g transform="matrix(2.200421 0 0 2.200421 -6.028239 -8.013655)"><use xlink:href="#M" fill="url(#J)"/><use xlink:href="#N" fill="url(#J)"/><use xlink:href="#O" fill="url(#J)"/><use xlink:href="#P" fill="url(#J)"/></g><g transform="matrix(2.200421 0 0 2.200421 -6.028239 -8.013659)"><use xlink:href="#M" fill="url(#I)"/><use xlink:href="#N" fill="url(#I)"/><use xlink:href="#O" fill="url(#I)"/><use xlink:href="#P" fill="url(#I)"/></g></g></svg>